<svg xmlns="http://www.w3.org/2000/svg" width="22.977" height="23" viewBox="0 0 22.977 23">
  <g id="Group_9594" data-name="Group 9594" transform="translate(53.798 -143.007)">
    <rect id="Rectangle_15" data-name="Rectangle 15" width="22.977" height="23" transform="translate(-53.798 143.007)" fill="#fff" opacity="0"/>
    <g id="dashboard" transform="translate(-50.898 145.907)">
      <path id="Path_140018" data-name="Path 140018" d="M6.629,0H1.254A1.256,1.256,0,0,0,0,1.254V4.479A1.256,1.256,0,0,0,1.254,5.734H6.629A1.256,1.256,0,0,0,7.884,4.479V1.254A1.256,1.256,0,0,0,6.629,0Zm0,0" fill="#fff"/>
      <path id="Path_140019" data-name="Path 140019" d="M6.629,213.332H1.254A1.256,1.256,0,0,0,0,214.586v7.525a1.256,1.256,0,0,0,1.254,1.254H6.629a1.256,1.256,0,0,0,1.254-1.254v-7.525A1.256,1.256,0,0,0,6.629,213.332Zm0,0" transform="translate(0 -206.165)" fill="#fff"/>
      <path id="Path_140020" data-name="Path 140020" d="M283.962,341.332h-5.375a1.256,1.256,0,0,0-1.254,1.254v3.225a1.256,1.256,0,0,0,1.254,1.254h5.375a1.256,1.256,0,0,0,1.254-1.254v-3.225A1.256,1.256,0,0,0,283.962,341.332Zm0,0" transform="translate(-268.015 -329.865)" fill="#fff"/>
      <path id="Path_140021" data-name="Path 140021" d="M283.962,0h-5.375a1.256,1.256,0,0,0-1.254,1.254V8.779a1.256,1.256,0,0,0,1.254,1.254h5.375a1.256,1.256,0,0,0,1.254-1.254V1.254A1.256,1.256,0,0,0,283.962,0Zm0,0" transform="translate(-268.015)" fill="#fff"/>
    </g>
  </g>
</svg>
