<svg xmlns="http://www.w3.org/2000/svg" width="23" height="23" viewBox="0 0 23 23">
  <g id="Group_89596" data-name="Group 89596" transform="translate(-29 -307)">
    <rect id="Rectangle_16" data-name="Rectangle 16" width="23" height="23" transform="translate(29 307)" fill="#feffff" opacity="0"/>
    <g id="business-and-trade" transform="translate(31.096 308.988)">
      <path id="Path_140025" data-name="Path 140025" d="M10.211,1.5,1.6.2A1.389,1.389,0,0,0,.486.5,1.4,1.4,0,0,0,0,1.551V18.063a.786.786,0,0,0,.784.784H3.331V14.732A1.368,1.368,0,0,1,4.7,13.361H6.661a1.368,1.368,0,0,1,1.371,1.371v4.114h3.331V2.86A1.372,1.372,0,0,0,10.211,1.5ZM4.31,11.6H3.135a.588.588,0,1,1,0-1.176H4.31a.588.588,0,1,1,0,1.176Zm0-2.351H3.135a.588.588,0,0,1,0-1.176H4.31a.588.588,0,1,1,0,1.176Zm0-2.351H3.135a.588.588,0,1,1,0-1.176H4.31a.588.588,0,1,1,0,1.176Zm0-2.351H3.135a.588.588,0,1,1,0-1.176H4.31a.588.588,0,1,1,0,1.176ZM8.229,11.6H7.053a.588.588,0,0,1,0-1.176H8.229a.588.588,0,0,1,0,1.176Zm0-2.351H7.053a.588.588,0,0,1,0-1.176H8.229a.588.588,0,0,1,0,1.176Zm0-2.351H7.053a.588.588,0,0,1,0-1.176H8.229a.588.588,0,0,1,0,1.176Zm0-2.351H7.053a.588.588,0,1,1,0-1.176H8.229a.588.588,0,1,1,0,1.176Z" transform="translate(0 0)" fill="#fff"/>
      <path id="Path_140026" data-name="Path 140026" d="M21.08,10.519,15.5,9.351v11.48h5.29a1.373,1.373,0,0,0,1.371-1.371v-7.6A1.365,1.365,0,0,0,21.08,10.519ZM19.222,18.48H18.047a.588.588,0,0,1,0-1.176h1.176a.588.588,0,0,1,0,1.176Zm0-2.351H18.047a.588.588,0,1,1,0-1.176h1.176a.588.588,0,1,1,0,1.176Zm0-2.351H18.047a.588.588,0,0,1,0-1.176h1.176a.588.588,0,0,1,0,1.176Z" transform="translate(-3.353 -1.984)" fill="#fff"/>
    </g>
  </g>
</svg>
