<svg xmlns="http://www.w3.org/2000/svg" width="26" height="26" viewBox="0 0 26 26">
  <g id="Group_82231" data-name="Group 82231" transform="translate(-30 -622)">
    <rect id="Rectangle_23356" data-name="Rectangle 23356" width="26" height="26" transform="translate(30 622)" fill="#fff" opacity="0"/>
    <g id="page" transform="translate(35.528 624.979)">
      <path id="Path_87564" data-name="Path 87564" d="M11.979,5.556A2.562,2.562,0,0,1,9.426,2.986V0H1.532A1.541,1.541,0,0,0,0,1.542V18.5a1.541,1.541,0,0,0,1.532,1.542H13.413A1.541,1.541,0,0,0,14.945,18.5V5.556ZM2.762,7.863H8.282a.514.514,0,0,1,0,1.028H2.762a.514.514,0,0,1,0-1.028Zm9.936,8.8H2.762a.514.514,0,0,1,0-1.028H12.7a.514.514,0,0,1,0,1.028Zm0-3.89H2.762a.514.514,0,0,1,0-1.028H12.7a.514.514,0,0,1,0,1.028Zm0,0" fill="#fff"/>
      <path id="Path_87565" data-name="Path 87565" d="M206.119,17.843h2.235L204.6,14.1v2.225A1.518,1.518,0,0,0,206.119,17.843Zm0,0" transform="translate(-194.111 -13.388)" fill="#fff"/>
    </g>
  </g>
</svg>
