<svg xmlns="http://www.w3.org/2000/svg" width="23" height="23" viewBox="0 0 23 23">
  <g id="Group_89595" data-name="Group 89595" transform="translate(-29 -244)">
    <rect id="Rectangle_16" data-name="Rectangle 16" width="23" height="23" transform="translate(29 244)" fill="#041e39" opacity="0"/>
    <path id="clerk-with-tie" d="M26.079,7.675c-.321,1.227-1.07,1.5-1.469,1.551a8.089,8.089,0,0,1-1.328,2,2.645,2.645,0,0,1-.835.506,3.684,3.684,0,0,1-2.709,0,2.642,2.642,0,0,1-.835-.506,8.085,8.085,0,0,1-1.328-2c-.4-.054-1.148-.324-1.469-1.551a1.952,1.952,0,0,1,.131-1.59,1.241,1.241,0,0,1,.381-.378c0-.131.006-.295.021-.481a2.255,2.255,0,0,1-.157-2.144,1.91,1.91,0,0,1,1.8-1.39A3.116,3.116,0,0,1,19.242.637,3.713,3.713,0,0,1,21.375,0a4.813,4.813,0,0,1,2.848,1c1.434,1.057,1.311,3.4,1.276,3.826a6.352,6.352,0,0,1,.067.885,1.241,1.241,0,0,1,.381.378A1.952,1.952,0,0,1,26.079,7.675Zm4.194,9.135v3.327a.471.471,0,0,1-.471.471H12.382a.471.471,0,0,1-.471-.471V16.81a3.3,3.3,0,0,1,2.083-3.077l4.122-1.649a.471.471,0,0,1,.618.277l1.036,2.865.205-.59-.326-.8a.471.471,0,0,1,.436-.65H22.1a.471.471,0,0,1,.436.65l-.326.8.205.59,1.036-2.865a.471.471,0,0,1,.618-.277l4.122,1.649A3.3,3.3,0,0,1,30.274,16.81Zm-2.509.362a.471.471,0,0,0-.471-.471H24.128a.471.471,0,0,0-.471.471v1.47a.471.471,0,0,0,.471.471h3.165a.471.471,0,0,0,.471-.471Z" transform="translate(19.408 245.196)" fill="#041e39"/>
  </g>
</svg>
