<svg xmlns="http://www.w3.org/2000/svg" width="33.999" height="34" viewBox="0 0 33.999 34">
  <g id="Group_89846" data-name="Group 89846" transform="translate(-1654.5 -479)">
    <g id="Group_82264" data-name="Group 82264" transform="translate(1654.5 479)">
      <path id="Union_19" data-name="Union 19" d="M4.448,34A4.447,4.447,0,0,1,0,29.552V4.449A4.448,4.448,0,0,1,4.448,0h25.1A4.448,4.448,0,0,1,34,4.449v25.1A4.447,4.447,0,0,1,29.552,34Z" fill="#041e39"/>
    </g>
    <g id="Layer_92" data-name="Layer 92" transform="translate(1660.081 484.584)">
      <path id="Path_140065" data-name="Path 140065" d="M20.736,2.848a2.824,2.824,0,0,0-4.019,0L14.91,4.683,18.9,8.673l1.807-1.807a2.824,2.824,0,0,0,.028-4.019Z" transform="translate(-0.759)" fill="#fff"/>
      <path id="Path_140066" data-name="Path 140066" d="M12.815,6.27l-7.9,7.9a1.082,1.082,0,0,0-.179.245l-2.616,5.28a.937.937,0,0,0,1.233,1.289l5.28-2.616a1.082,1.082,0,0,0,.245-.179l7.9-7.9Z" transform="translate(0 -0.251)" fill="#fff"/>
      <path id="Path_140067" data-name="Path 140067" d="M20.412,21.882H11.941a.941.941,0,1,1,0-1.882h8.471a.941.941,0,1,1,0,1.882Z" transform="translate(-0.529 -1.058)" fill="#fff"/>
    </g>
  </g>
</svg>
