<svg width="72" height="72" viewBox="0 0 72 72" fill="none" xmlns="http://www.w3.org/2000/svg">
<rect width="72" height="72" rx="36" fill="#041e39" fill-opacity="1"/>
<path fill-rule="evenodd" clip-rule="evenodd" d="M54.5653 22.1598C54.539 22.4939 54.7895 22.786 55.1247 22.8121C55.4599 22.8383 55.7531 22.5888 55.7793 22.2547L55.9977 19.5877H55.9975C56.0005 19.5497 55.9998 19.5108 55.9954 19.4715C55.9573 19.1388 55.6556 18.8998 55.3217 18.9379L52.6548 19.2513C52.3209 19.2893 52.0811 19.5899 52.1193 19.9226C52.1574 20.2554 52.459 20.4943 52.7929 20.4563L53.775 20.3408L46.8175 27.5498L39.5353 23.9705C39.3161 23.8437 39.0314 23.8627 38.8296 24.0377L34.1131 28.1313C34.2037 27.6326 34.2513 27.1193 34.2513 26.5951C34.2513 21.8558 30.3819 18 25.6257 18C20.8695 18 17 21.8557 17 26.595C17 31.3343 20.8694 35.19 25.6255 35.19C29.0142 35.19 31.9522 33.2323 33.3619 30.3926L39.3246 25.2177L46.6782 28.832C46.927 28.9543 47.2192 28.8913 47.3969 28.6964L54.645 21.1865L54.5653 22.1598ZM25.6256 33.9756C21.5414 33.9756 18.2188 30.6647 18.2188 26.595C18.2188 22.5253 21.5414 19.2144 25.6255 19.2144C29.7096 19.2144 33.0323 22.5253 33.0323 26.595C33.0323 30.6647 29.7097 33.9756 25.6256 33.9756ZM36.1649 34.9222H32.7164C31.9604 34.9222 31.3453 35.5351 31.3453 36.2884V52.6337C31.3453 53.387 31.9604 53.9999 32.7164 53.9999H36.1649C36.9209 53.9999 37.536 53.387 37.536 52.6337V36.2885C37.536 35.5351 36.9209 34.9222 36.1649 34.9222ZM36.3173 52.6338C36.3173 52.716 36.2475 52.7856 36.1649 52.7856H32.7164C32.6338 52.7856 32.564 52.716 32.564 52.6338V36.2885C32.564 36.2062 32.6338 36.1367 32.7164 36.1367H36.1649C36.2475 36.1367 36.3173 36.2062 36.3173 36.2885V52.6338ZM45.397 38.3011H41.9485C41.1925 38.3011 40.5774 38.914 40.5774 39.6673V52.6338C40.5774 53.3871 41.1925 54 41.9485 54H45.397C46.153 54 46.7681 53.3871 46.7681 52.6338V39.6673C46.7681 38.914 46.153 38.3011 45.397 38.3011ZM45.5494 52.6338C45.5494 52.716 45.4796 52.7856 45.397 52.7856H41.9485C41.8659 52.7856 41.7962 52.716 41.7962 52.6338V39.6673C41.7962 39.585 41.8659 39.5155 41.9485 39.5155H45.397C45.4796 39.5155 45.5494 39.585 45.5494 39.6673V52.6338ZM54.6289 28.4233H51.1804C50.4244 28.4233 49.8093 29.0362 49.8093 29.7896V52.6337C49.8093 53.387 50.4244 53.9999 51.1804 53.9999H54.6289C55.3849 53.9999 56 53.387 56 52.6337V29.7896C56 29.0362 55.3849 28.4233 54.6289 28.4233ZM54.7812 52.6337C54.7812 52.716 54.7115 52.7855 54.6289 52.7855H51.1804C51.0978 52.7855 51.028 52.716 51.028 52.6337V29.7896C51.028 29.7073 51.0978 29.6378 51.1804 29.6378H54.6289C54.7115 29.6378 54.7812 29.7073 54.7812 29.7896V52.6337ZM26.9329 43.2809H23.4844C22.7284 43.2809 22.1133 43.8938 22.1133 44.6471V52.6337C22.1133 53.387 22.7284 53.9999 23.4844 53.9999H26.9329C27.6889 53.9999 28.304 53.387 28.304 52.6337V44.6471C28.304 43.8938 27.6889 43.2809 26.9329 43.2809ZM27.0852 52.6337C27.0852 52.716 27.0155 52.7855 26.9329 52.7855H23.4844C23.4019 52.7855 23.3321 52.716 23.3321 52.6337V44.6471C23.3321 44.5649 23.4019 44.4953 23.4844 44.4953H26.9329C27.0155 44.4953 27.0852 44.5649 27.0852 44.6471V52.6337ZM28.7689 28.3959C28.861 29.1411 28.5988 29.915 27.9109 30.435C27.4372 30.7932 26.8285 31.0043 26.2349 31.0866V31.6496C26.2349 31.985 25.9621 32.2569 25.6256 32.2569C25.289 32.2569 25.0162 31.985 25.0162 31.6496V31.0754C24.5236 30.9958 24.0525 30.8222 23.6492 30.5544C23.0819 30.1779 22.6472 29.6226 22.4636 28.8883C22.3834 28.5634 22.5827 28.2353 22.9087 28.1554C23.2347 28.0755 23.564 28.2741 23.6442 28.599C23.7479 29.0134 23.9959 29.3286 24.3205 29.544C25.1187 30.0738 26.4062 30.0555 27.1778 29.4721C27.8582 28.9576 27.6087 28.0088 26.9488 27.6119C26.5486 27.3711 26.0251 27.244 25.5353 27.164C24.941 27.0667 24.2973 26.8906 23.7748 26.5507C22.4275 25.6743 22.3872 23.7459 23.6174 22.7492C23.9955 22.4429 24.4651 22.2326 24.9655 22.1322L25.0163 22.1224V21.5402C25.0163 21.2049 25.2891 20.933 25.6256 20.933C25.9622 20.933 26.235 21.2049 26.235 21.5402V22.1132C26.317 22.1273 26.3986 22.1446 26.4794 22.1649C27.3456 22.3838 28.1335 22.9512 28.5474 23.9335C28.6775 24.2426 28.5315 24.5984 28.2213 24.7281C27.911 24.8577 27.554 24.7123 27.4238 24.4031C27.1276 23.6995 26.4 23.282 25.6397 23.2816C24.8293 23.2812 23.8835 23.7663 23.9284 24.6876C23.9718 25.5787 25.0128 25.851 25.7305 25.9684C26.3469 26.0692 27.0188 26.237 27.5772 26.5729C28.2613 26.9845 28.68 27.6768 28.7689 28.3959Z" fill="white"/>
</svg>
