<svg width="72" height="72" viewBox="0 0 72 72" fill="#041e39" xmlns="http://www.w3.org/2000/svg">
<rect width="72" height="72" rx="36" fill="#041e39" fill-opacity="1"/>
<path d="M53.8572 39.7733L50.6563 34.2293C50.5816 34.0999 50.465 33.9999 50.3257 33.9458L43.5674 31.318C43.7778 30.608 43.8913 29.8568 43.8913 29.0796C43.8913 24.7282 40.3512 21.1882 35.9999 21.1882C31.6485 21.1882 28.1085 24.7282 28.1085 29.0796C28.1085 29.8569 28.222 30.608 28.4323 31.318L21.674 33.9458C21.5348 33.9999 21.4182 34.0999 21.3435 34.2293L18.1426 39.7733C18.0469 39.9391 18.0283 40.1385 18.0919 40.3191C18.1554 40.4997 18.2947 40.6436 18.4731 40.713L21.2555 41.7949V50.8249C21.2555 51.0956 21.4217 51.3384 21.674 51.4366L35.762 56.9144C35.8385 56.9441 35.9192 56.959 35.9998 56.959C36.0804 56.959 36.1612 56.9441 36.2376 56.9144L50.3256 51.4366C50.5779 51.3384 50.7441 51.0956 50.7441 50.8249V41.7949L53.5265 40.713C53.705 40.6436 53.8442 40.4997 53.9077 40.3191C53.9715 40.1385 53.9529 39.9391 53.8572 39.7733ZM36 22.5007C39.6276 22.5007 42.5789 25.452 42.5789 29.0796C42.5789 32.7072 39.6276 35.6585 36 35.6585C32.3724 35.6585 29.4211 32.7072 29.4211 29.0796C29.4211 25.452 32.3723 22.5007 36 22.5007ZM36 36.971C39.1268 36.971 41.8348 35.1429 43.1112 32.4994L48.2902 34.5523L36 39.3311L23.7096 34.5523L28.8887 32.4994C30.1651 35.1429 32.873 36.971 36 36.971ZM19.6619 39.767L22.1988 35.373L35.0491 40.3696L32.5122 44.7636L19.6619 39.767ZM22.5682 42.3053L32.5613 46.1909C32.8631 46.3081 33.2055 46.1879 33.3674 45.9074L35.3437 42.4844V55.3435L22.5682 50.376V42.3053ZM49.4318 50.376L36.6562 55.3435V42.4844L38.6325 45.9075C38.7945 46.188 39.1368 46.3083 39.4386 46.191L49.4318 42.3053V50.376ZM39.4878 44.7636L36.9508 40.3696L49.8012 35.373L52.3381 39.767L39.4878 44.7636ZM34.3671 33.3424C34.8214 33.3424 35.249 33.1651 35.571 32.8431L40.6867 27.7274C41.3514 27.0626 41.3514 25.9809 40.6867 25.316C40.3647 24.994 39.9365 24.8167 39.4811 24.8167C39.0258 24.8167 38.5976 24.994 38.2755 25.316L34.5098 29.0818L33.5047 27.8171C33.1797 27.4083 32.6935 27.1738 32.1709 27.1738C31.7881 27.1738 31.412 27.3052 31.1117 27.5437C30.3767 28.1282 30.2542 29.2017 30.8384 29.9366L32.9797 32.6311C33.2998 33.0771 33.8167 33.3425 34.3671 33.3424ZM31.9284 28.5711C32.0166 28.5009 32.1089 28.4862 32.1708 28.4862C32.291 28.4862 32.4027 28.54 32.4771 28.6337L33.9398 30.4743C34.0562 30.6207 34.2294 30.7105 34.4162 30.7212C34.6025 30.7316 34.7853 30.6623 34.9176 30.5301L39.2035 26.2441C39.2775 26.1699 39.3761 26.1292 39.4811 26.1292C39.586 26.1292 39.6844 26.17 39.7585 26.244C39.9116 26.3972 39.9116 26.6463 39.7586 26.7994L34.6428 31.9151C34.5479 32.01 34.4404 32.0299 34.367 32.0299C34.2356 32.0299 34.1174 31.9684 34.0425 31.8612C34.0348 31.85 34.0267 31.8392 34.0183 31.8286L31.8658 29.12C31.7318 28.9514 31.7599 28.7051 31.9284 28.5711ZM35.3437 18.7709V15.6973C35.3437 15.3349 35.6375 15.041 36 15.041C36.3624 15.041 36.6562 15.3349 36.6562 15.6973V18.7709C36.6562 19.1333 36.3624 19.4271 36 19.4271C35.6375 19.4271 35.3437 19.1333 35.3437 18.7709ZM28.7173 17.7319C28.5361 17.418 28.6437 17.0167 28.9576 16.8354C29.2714 16.6543 29.6728 16.7618 29.854 17.0756L31.3908 19.7375C31.572 20.0513 31.4645 20.4527 31.1506 20.6339C31.0473 20.6935 30.9344 20.7219 30.8231 20.7219C30.5962 20.7219 30.3757 20.6042 30.2541 20.3937L28.7173 17.7319ZM23.7558 21.9107C23.937 21.5968 24.3384 21.4892 24.6523 21.6705L27.3141 23.2073C27.6279 23.3885 27.7355 23.7899 27.5543 24.1037C27.4328 24.3142 27.2121 24.432 26.9853 24.432C26.874 24.432 26.7612 24.4036 26.6578 24.3439L23.996 22.8072C23.6822 22.626 23.5746 22.2246 23.7558 21.9107ZM21.7887 28.9068C21.7887 28.5444 22.0825 28.2506 22.445 28.2506H25.5185C25.881 28.2506 26.1748 28.5444 26.1748 28.9068C26.1748 29.2693 25.881 29.5631 25.5185 29.5631H22.445C22.0825 29.5631 21.7887 29.2693 21.7887 28.9068ZM40.5629 19.9101L42.0997 17.2483C42.2809 16.9344 42.6822 16.8268 42.9961 17.0081C43.3099 17.1893 43.4176 17.5907 43.2364 17.9046L41.6995 20.5664C41.5779 20.7769 41.3574 20.8946 41.1305 20.8946C41.0192 20.8946 40.9063 20.8662 40.803 20.8066C40.4892 20.6255 40.3817 20.2241 40.5629 19.9101ZM44.273 24.4029C44.0918 24.0891 44.1993 23.6877 44.5132 23.5065L47.175 21.9697C47.4889 21.7886 47.8902 21.8961 48.0714 22.2099C48.2527 22.5237 48.1451 22.9251 47.8313 23.1063L45.1694 24.6431C45.0661 24.7027 44.9533 24.7311 44.842 24.7311C44.6151 24.7311 44.3945 24.6134 44.273 24.4029ZM46.136 28.596H49.2095C49.572 28.596 49.8658 28.8899 49.8658 29.2523C49.8658 29.6147 49.572 29.9085 49.2095 29.9085H46.136C45.7735 29.9085 45.4798 29.6147 45.4798 29.2523C45.4798 28.8899 45.7736 28.596 46.136 28.596Z" fill="white"/>
</svg>
